<svg width="317" height="399" viewBox="0 0 317 399" fill="none" xmlns="http://www.w3.org/2000/svg">
<mask id="mask0_2_97" style="mask-type:alpha" maskUnits="userSpaceOnUse" x="50" y="261" width="45" height="118">
<path d="M50 261H93L94.5 337.5L50 379L50 261Z" fill="url(#paint0_linear_2_97)"/>
</mask>
<g mask="url(#mask0_2_97)">
<g filter="url(#filter0_f_2_97)">
<path d="M50 261H93L94.5 337.5L50 379L50 261Z" fill="url(#paint1_linear_2_97)"/>
</g>
</g>
<g filter="url(#filter1_d_2_97)">
<circle cx="158.5" cy="154.5" r="154.5" fill="url(#paint2_linear_2_97)"/>
</g>
<mask id="mask1_2_97" style="mask-type:alpha" maskUnits="userSpaceOnUse" x="52" y="271" width="131" height="109">
<path d="M52.7155 379.27L164.009 271.659L182.007 290.993L98.6751 372.88L52.7155 379.27Z" fill="#F58E02"/>
</mask>
<g mask="url(#mask1_2_97)">
<g filter="url(#filter2_f_2_97)">
<path d="M50.5053 381.407L164.009 271.659L182 291L97 374.5L50.5053 381.407Z" fill="#FFF42F"/>
</g>
<rect x="118" y="293" width="24" height="66" fill="#FCBB00"/>
<rect x="94" y="309" width="24" height="66" fill="#FFCF00"/>
<rect x="142" y="271" width="24" height="66" fill="#F38C00"/>
</g>
<mask id="mask2_2_97" style="mask-type:alpha" maskUnits="userSpaceOnUse" x="4" y="0" width="309" height="309">
<circle cx="158.5" cy="154.5" r="154.5" fill="url(#paint3_linear_2_97)"/>
</mask>
<g mask="url(#mask2_2_97)">
<g filter="url(#filter3_i_2_97)">
<rect x="46.4472" y="26" width="315.545" height="77" transform="rotate(45 46.4472 26)" fill="url(#paint4_linear_2_97)"/>
</g>
</g>
<g filter="url(#filter4_d_2_97)">
<path d="M253 287.499L162 381L162 269.5C162 269.5 187.5 248.5 199.5 221C206 193.5 199.5 164.5 173 151C170.17 149.558 167.322 148.476 164.494 147.692C162.143 147.041 159.804 146.596 157.5 146.323C136.619 143.852 118.5 155.5 118.5 155.5C118.5 143.003 118.5 123.5 118.5 123.5L71 73C71 73 71 58.0363 100 34.5C143.482 -0.790108 209.998 12.9648 253.249 61.5C278.631 89.9829 296 130.444 296 180C296 253.5 253 287.499 253 287.499Z" fill="url(#paint5_linear_2_97)"/>
<path d="M252.07 286.323L252.069 286.323L252.069 286.323L251.993 286.383L251.925 286.453L163.5 377.308L163.5 270.197C163.666 270.055 163.869 269.88 164.105 269.675C164.836 269.037 165.892 268.099 167.194 266.887C169.797 264.465 173.39 260.951 177.361 256.57C185.291 247.822 194.784 235.559 200.875 221.6L200.929 221.476L200.96 221.345C207.549 193.468 201.032 163.597 173.681 149.663C170.758 148.174 167.816 147.056 164.894 146.247C162.466 145.574 160.052 145.115 157.676 144.834C146.922 143.561 136.925 145.926 129.656 148.576C126.014 149.903 123.037 151.31 120.965 152.388C120.618 152.569 120.296 152.74 120 152.901V152.847V152.769V152.691V152.613V152.534V152.455V152.377V152.298V152.219V152.14V152.061V151.981V151.902V151.822V151.743V151.663V151.583V151.503V151.423V151.343V151.263V151.183V151.102V151.022V150.941V150.861V150.78V150.699V150.618V150.537V150.456V150.375V150.293V150.212V150.131V150.049V149.968V149.886V149.804V149.722V149.641V149.559V149.477V149.394V149.312V149.23V149.148V149.065V148.983V148.901V148.818V148.735V148.653V148.57V148.487V148.404V148.322V148.239V148.156V148.073V147.989V147.906V147.823V147.74V147.657V147.573V147.49V147.407V147.323V147.24V147.156V147.073V146.989V146.905V146.822V146.738V146.654V146.571V146.487V146.403V146.319V146.235V146.152V146.068V145.984V145.9V145.816V145.732V145.648V145.564V145.48V145.396V145.312V145.228V145.144V145.06V144.976V144.892V144.808V144.724V144.639V144.555V144.471V144.387V144.303V144.219V144.135V144.051V143.967V143.883V143.799V143.715V143.631V143.547V143.463V143.379V143.295V143.211V143.127V143.043V142.96V142.876V142.792V142.708V142.624V142.541V142.457V142.373V142.29V142.206V142.122V142.039V141.955V141.872V141.789V141.705V141.622V141.538V141.455V141.372V141.289V141.206V141.123V141.04V140.957V140.874V140.791V140.708V140.625V140.543V140.46V140.377V140.295V140.212V140.13V140.048V139.965V139.883V139.801V139.719V139.637V139.555V139.473V139.391V139.31V139.228V139.147V139.065V138.984V138.902V138.821V138.74V138.659V138.578V138.497V138.416V138.335V138.255V138.174V138.094V138.014V137.933V137.853V137.773V137.693V137.613V137.533V137.454V137.374V137.295V137.215V137.136V137.057V136.978V136.899V136.82V136.741V136.663V136.584V136.506V136.428V136.35V136.272V136.194V136.116V136.038V135.961V135.883V135.806V135.729V135.652V135.575V135.498V135.422V135.345V135.269V135.193V135.117V135.041V134.965V134.889V134.814V134.738V134.663V134.588V134.513V134.438V134.364V134.289V134.215V134.141V134.067V133.993V133.919V133.845V133.772V133.699V133.626V133.553V133.48V133.407V133.335V133.263V133.191V133.119V133.047V132.975V132.904V132.833V132.762V132.691V132.62V132.55V132.479V132.409V132.339V132.269V132.2V132.13V132.061V131.992V131.923V131.854V131.786V131.718V131.649V131.582V131.514V131.446V131.379V131.312V131.245V131.178V131.112V131.045V130.979V130.913V130.848V130.782V130.717V130.652V130.587V130.523V130.458V130.394V130.33V130.266V130.203V130.139V130.076V130.013V129.951V129.888V129.826V129.764V129.702V129.641V129.58V129.519V129.458V129.397V129.337V129.277V129.217V129.157V129.098V129.039V128.98V128.921V128.863V128.805V128.747V128.689V128.632V128.575V128.518V128.461V128.405V128.349V128.293V128.237V128.182V128.127V128.072V128.017V127.963V127.909V127.855V127.802V127.749V127.696V127.643V127.591V127.538V127.487V127.435V127.384V127.333V127.282V127.231V127.181V127.131V127.082V127.032V126.983V126.935V126.886V126.838V126.79V126.743V126.695V126.648V126.602V126.555V126.509V126.463V126.418V126.373V126.328V126.283V126.239V126.195V126.151V126.108V126.065V126.022V125.98V125.938V125.896V125.855V125.813V125.773V125.732V125.692V125.652V125.613V125.573V125.534V125.496V125.458V125.42V125.382V125.345V125.308V125.272V125.235V125.199V125.164V125.129V125.094V125.059V125.025V124.991V124.958V124.925V124.892V124.859V124.827V124.796V124.764V124.733V124.702V124.672V124.642V124.613V124.583V124.554V124.526V124.498V124.47V124.443V124.415V124.389V124.362V124.336V124.311V124.286V124.261V124.236V124.212V124.189V124.165V124.142V124.12V124.098V124.076V124.054V124.033V124.013V123.992V123.973V123.953V123.934V123.915V123.897V123.879V123.862V123.844V123.828V123.811V123.796V123.78V123.765V123.75V123.736V123.722V123.709V123.696V123.683V123.671V123.659V123.647V123.636V123.626V123.616V123.606V123.597V123.588V123.579V123.571V123.564V123.556V123.55V123.543V123.537V123.532V123.527V123.522V123.518V123.514V123.511V123.508V123.506V123.504V123.502V123.501V123.5C120 123.5 120 123.5 118.5 123.5H120V122.905L119.593 122.472L72.5499 72.4585C72.6005 72.0648 72.7022 71.4637 72.9063 70.666C73.3276 69.0196 74.1875 66.5286 75.9435 63.2913C79.456 56.8157 86.5641 47.3364 100.945 35.6647C143.597 1.04888 209.212 14.3379 252.129 62.498C277.263 90.7023 294.5 130.807 294.5 180C294.5 216.441 283.844 243.05 273.218 260.533C267.903 269.279 262.592 275.745 258.62 280.017C256.635 282.153 254.984 283.739 253.836 284.787C253.263 285.311 252.814 285.7 252.513 285.955C252.455 286.004 252.403 286.049 252.356 286.088C252.281 286.151 252.22 286.201 252.173 286.239C252.136 286.269 252.109 286.292 252.091 286.306L252.073 286.32L252.07 286.323Z" stroke="black" stroke-width="3"/>
</g>
<g filter="url(#filter5_d_2_97)">
<path d="M75.8868 141.534C75.8868 141.534 74.8302 149.764 75.3585 159.538C75.8868 169.312 79.0566 176 79.0566 176C79.0566 176 50 160.609 50 119.413C50 89.0625 72.717 69 72.717 69L106 105C86.778 118.498 78.6642 124.525 75.8868 141.534Z" fill="url(#paint6_linear_2_97)"/>
<path d="M74.4064 141.292L74.4023 141.317L74.399 141.343L75.8868 141.534C74.399 141.343 74.399 141.343 74.3989 141.343L74.3989 141.344L74.3986 141.345L74.3979 141.351L74.3953 141.372L74.386 141.448C74.378 141.514 74.3664 141.611 74.3521 141.736C74.3234 141.988 74.2833 142.355 74.2371 142.826C74.1447 143.766 74.0276 145.12 73.9273 146.78C73.7268 150.099 73.5926 154.66 73.8607 159.619C74.1324 164.647 75.0832 168.88 75.9676 171.861C76.0074 171.995 76.0471 172.127 76.0866 172.256C75.8742 172.099 75.6547 171.934 75.4286 171.761C72.7821 169.733 69.2403 166.603 65.6954 162.213C58.6186 153.448 51.5 139.626 51.5 119.413C51.5 104.617 57.0387 92.2942 62.6192 83.6379C65.4067 79.314 68.1938 75.922 70.28 73.6151C71.2426 72.5506 72.0548 71.7185 72.647 71.1339L103.734 104.759C94.8819 110.986 88.3333 115.746 83.6607 120.948C78.6674 126.507 75.8354 132.541 74.4064 141.292Z" stroke="black" stroke-width="3"/>
</g>
<g filter="url(#filter6_d_2_97)">
<path d="M121.5 151C121.5 151 93.1529 150.544 93 150.5C72 144.5 74.5 136.5 74.5 136.5C74.5 132.788 77.5 124.5 85 117.5C94.8619 108.296 104.5 103.5 104.5 103.5L121.5 121.5V151Z" fill="#1A1A1A"/>
</g>
<g filter="url(#filter7_df_2_97)">
<path d="M179.177 82.0012C179.124 105.316 160.517 118.809 146.904 128.255C136.046 121.105 117.988 113.461 101.373 95.0524C96.7285 72.4943 124.814 33.3912 145.315 29.1703C165.817 24.9495 174.533 59.4431 179.177 82.0012Z" fill="url(#paint7_linear_2_97)" fill-opacity="0.8" shape-rendering="crispEdges"/>
</g>
<g filter="url(#filter8_f_2_97)">
<path d="M111.839 43.7146C144.574 11.366 171.765 51.2092 171.765 51.2092L116.857 103.898C116.857 103.898 79.1039 76.0632 111.839 43.7146Z" fill="white"/>
</g>
<g filter="url(#filter9_d_2_97)">
<circle cx="128" cy="61.9999" r="9" fill="black"/>
</g>
<g filter="url(#filter10_i_2_97)">
<path d="M173 19C173 19 180 19 194 24.5C208 30 212.5 32.5 212.5 32.5L212 256L173 297V19Z" fill="url(#paint8_linear_2_97)"/>
</g>
<path d="M254.5 66.5V281.5C254.5 281.5 296.5 245 293.5 173.5C290.5 102 254.5 66.5 254.5 66.5Z" fill="url(#paint9_linear_2_97)"/>
<g filter="url(#filter11_d_2_97)">
<path d="M163.628 269.779L163.628 269.78L163.536 269.845L163.454 269.924L94 337.45V264V201.004L94 201.004L94 201.002L94 201.001L94 201L94.0001 200.998C94.0002 200.99 94.0005 200.973 94.0013 200.948C94.0028 200.898 94.006 200.815 94.0129 200.699C94.0268 200.467 94.0554 200.103 94.1146 199.605C94.2328 198.609 94.4729 197.074 94.9608 194.984C95.9364 190.802 97.9031 184.395 101.867 175.617C105.775 166.964 110.904 160.738 115.049 156.679C117.122 154.65 118.946 153.166 120.243 152.194C120.892 151.708 121.408 151.35 121.758 151.117C121.933 151 122.066 150.915 122.153 150.86C122.196 150.833 122.228 150.813 122.248 150.801L122.269 150.788L122.271 150.787L122.271 150.786L122.272 150.786L122.272 150.786L122.371 150.727L122.46 150.652C122.659 150.486 123.592 149.926 125.306 149.151C126.954 148.405 129.194 147.519 131.887 146.673C137.277 144.981 144.429 143.471 152.232 143.562C160.029 143.654 168.448 145.343 176.429 150.021C184.395 154.69 192.012 162.39 198.145 174.643C210.081 201.227 201.594 224.901 189.946 242.096C184.12 250.695 177.531 257.626 172.392 262.41C169.824 264.8 167.624 266.649 166.069 267.898C165.292 268.522 164.677 268.996 164.258 269.312C164.049 269.47 163.889 269.589 163.782 269.667C163.761 269.683 163.743 269.696 163.726 269.709C163.7 269.727 163.679 269.743 163.663 269.754L163.635 269.774L163.629 269.779L163.628 269.779Z" fill="url(#paint10_linear_2_97)" stroke="black" stroke-width="3"/>
<g filter="url(#filter12_i_2_97)">
<path d="M128.5 193L197 175.5C197 175.5 201.5 186 202 190.5C202.5 195 202 205.5 202 205.5C202 205.5 201.375 222.5 189.5 240C177.625 257.5 162 269.5 162 269.5L128 302.5L128.5 193Z" fill="url(#paint11_linear_2_97)" fill-opacity="0.8"/>
</g>
<g opacity="0.4" filter="url(#filter13_d_2_97)">
<path d="M179.5 245.5L134 290L134 154L179.5 245.5Z" fill="#885B02" fill-opacity="0.5" shape-rendering="crispEdges"/>
</g>
<path d="M126.5 150C126.5 150 173 128.5 197 175.5L95.5 201.5C95.5 201.5 94.9194 195 103.5 176C112.081 157 126.5 150 126.5 150Z" fill="url(#paint12_linear_2_97)"/>
</g>
<mask id="path-25-inside-1_2_97" fill="white">
<path d="M126.303 304.017C127.46 305.203 127.436 307.103 126.25 308.259L54.2164 378.5C53.0302 379.657 51.1308 379.633 49.9741 378.446L19.954 347.66C18.7973 346.474 18.8212 344.575 20.0075 343.418L92.0406 273.177C93.2269 272.021 95.1262 272.045 96.2829 273.231L126.303 304.017Z"/>
</mask>
<path d="M126.303 304.017C128.616 306.39 128.569 310.188 126.196 312.502L58.4587 378.553C56.0862 380.867 52.2875 380.819 49.9741 378.446C49.9741 378.446 50.9357 377.509 52.122 376.352L124.155 306.111C125.341 304.955 126.303 304.017 126.303 304.017ZM17.8596 345.512L94.1885 271.083L17.8596 345.512ZM94.1885 271.083L128.397 306.165L94.1885 271.083ZM52.0685 380.594L17.8596 345.512L52.0685 380.594Z" fill="black" mask="url(#path-25-inside-1_2_97)"/>
<g filter="url(#filter14_i_2_97)">
<path d="M164.838 305.5L251.5 214.5L252 284.5L210.053 327.906L164.838 374L164.838 305.5Z" fill="url(#paint13_linear_2_97)" fill-opacity="0.5"/>
</g>
<g filter="url(#filter15_i_2_97)">
<path d="M212 32.5C212 32.5 220 35.5 233.5 46.5C247 57.5 252 64 252 64L251.5 214.5L212 256V32.5Z" fill="url(#paint14_linear_2_97)"/>
</g>
<defs>
<filter id="filter0_f_2_97" x="44.3" y="255.3" width="55.9" height="129.4" filterUnits="userSpaceOnUse" color-interpolation-filters="sRGB">
<feFlood flood-opacity="0" result="BackgroundImageFix"/>
<feBlend mode="normal" in="SourceGraphic" in2="BackgroundImageFix" result="shape"/>
<feGaussianBlur stdDeviation="2.85" result="effect1_foregroundBlur_2_97"/>
</filter>
<filter id="filter1_d_2_97" x="0" y="0" width="317" height="317" filterUnits="userSpaceOnUse" color-interpolation-filters="sRGB">
<feFlood flood-opacity="0" result="BackgroundImageFix"/>
<feColorMatrix in="SourceAlpha" type="matrix" values="0 0 0 0 0 0 0 0 0 0 0 0 0 0 0 0 0 0 127 0" result="hardAlpha"/>
<feOffset dy="4"/>
<feGaussianBlur stdDeviation="2"/>
<feComposite in2="hardAlpha" operator="out"/>
<feColorMatrix type="matrix" values="0 0 0 0 0 0 0 0 0 0 0 0 0 0 0 0 0 0 0.25 0"/>
<feBlend mode="normal" in2="BackgroundImageFix" result="effect1_dropShadow_2_97"/>
<feBlend mode="normal" in="SourceGraphic" in2="effect1_dropShadow_2_97" result="shape"/>
</filter>
<filter id="filter2_f_2_97" x="46.5053" y="267.659" width="139.495" height="117.748" filterUnits="userSpaceOnUse" color-interpolation-filters="sRGB">
<feFlood flood-opacity="0" result="BackgroundImageFix"/>
<feBlend mode="normal" in="SourceGraphic" in2="BackgroundImageFix" result="shape"/>
<feGaussianBlur stdDeviation="2" result="effect1_foregroundBlur_2_97"/>
</filter>
<filter id="filter3_i_2_97" x="-8" y="26" width="277.571" height="281.571" filterUnits="userSpaceOnUse" color-interpolation-filters="sRGB">
<feFlood flood-opacity="0" result="BackgroundImageFix"/>
<feBlend mode="normal" in="SourceGraphic" in2="BackgroundImageFix" result="shape"/>
<feColorMatrix in="SourceAlpha" type="matrix" values="0 0 0 0 0 0 0 0 0 0 0 0 0 0 0 0 0 0 127 0" result="hardAlpha"/>
<feOffset dy="4"/>
<feGaussianBlur stdDeviation="2"/>
<feComposite in2="hardAlpha" operator="arithmetic" k2="-1" k3="1"/>
<feColorMatrix type="matrix" values="0 0 0 0 0 0 0 0 0 0 0 0 0 0 0 0 0 0 0.25 0"/>
<feBlend mode="normal" in2="shape" result="effect1_innerShadow_2_97"/>
</filter>
<filter id="filter4_d_2_97" x="67" y="14.7328" width="233" height="374.267" filterUnits="userSpaceOnUse" color-interpolation-filters="sRGB">
<feFlood flood-opacity="0" result="BackgroundImageFix"/>
<feColorMatrix in="SourceAlpha" type="matrix" values="0 0 0 0 0 0 0 0 0 0 0 0 0 0 0 0 0 0 127 0" result="hardAlpha"/>
<feOffset dy="4"/>
<feGaussianBlur stdDeviation="2"/>
<feComposite in2="hardAlpha" operator="out"/>
<feColorMatrix type="matrix" values="0 0 0 0 0 0 0 0 0 0 0 0 0 0 0 0 0 0 0.25 0"/>
<feBlend mode="normal" in2="BackgroundImageFix" result="effect1_dropShadow_2_97"/>
<feBlend mode="normal" in="SourceGraphic" in2="effect1_dropShadow_2_97" result="shape"/>
</filter>
<filter id="filter5_d_2_97" x="46" y="69" width="64" height="115" filterUnits="userSpaceOnUse" color-interpolation-filters="sRGB">
<feFlood flood-opacity="0" result="BackgroundImageFix"/>
<feColorMatrix in="SourceAlpha" type="matrix" values="0 0 0 0 0 0 0 0 0 0 0 0 0 0 0 0 0 0 127 0" result="hardAlpha"/>
<feOffset dy="4"/>
<feGaussianBlur stdDeviation="2"/>
<feComposite in2="hardAlpha" operator="out"/>
<feColorMatrix type="matrix" values="0 0 0 0 0 0 0 0 0 0 0 0 0 0 0 0 0 0 0.25 0"/>
<feBlend mode="normal" in2="BackgroundImageFix" result="effect1_dropShadow_2_97"/>
<feBlend mode="normal" in="SourceGraphic" in2="effect1_dropShadow_2_97" result="shape"/>
</filter>
<filter id="filter6_d_2_97" x="70.4075" y="103.5" width="55.0925" height="55.5001" filterUnits="userSpaceOnUse" color-interpolation-filters="sRGB">
<feFlood flood-opacity="0" result="BackgroundImageFix"/>
<feColorMatrix in="SourceAlpha" type="matrix" values="0 0 0 0 0 0 0 0 0 0 0 0 0 0 0 0 0 0 127 0" result="hardAlpha"/>
<feOffset dy="4"/>
<feGaussianBlur stdDeviation="2"/>
<feComposite in2="hardAlpha" operator="out"/>
<feColorMatrix type="matrix" values="0 0 0 0 0 0 0 0 0 0 0 0 0 0 0 0 0 0 0.25 0"/>
<feBlend mode="normal" in2="BackgroundImageFix" result="effect1_dropShadow_2_97"/>
<feBlend mode="normal" in="SourceGraphic" in2="effect1_dropShadow_2_97" result="shape"/>
</filter>
<filter id="filter7_df_2_97" x="75.963" y="3.91653" width="128.114" height="149.238" filterUnits="userSpaceOnUse" color-interpolation-filters="sRGB">
<feFlood flood-opacity="0" result="BackgroundImageFix"/>
<feColorMatrix in="SourceAlpha" type="matrix" values="0 0 0 0 0 0 0 0 0 0 0 0 0 0 0 0 0 0 127 0" result="hardAlpha"/>
<feOffset dy="4"/>
<feGaussianBlur stdDeviation="2"/>
<feComposite in2="hardAlpha" operator="out"/>
<feColorMatrix type="matrix" values="0 0 0 0 0 0 0 0 0 0 0 0 0 0 0 0 0 0 0.25 0"/>
<feBlend mode="normal" in2="BackgroundImageFix" result="effect1_dropShadow_2_97"/>
<feBlend mode="normal" in="SourceGraphic" in2="effect1_dropShadow_2_97" result="shape"/>
<feGaussianBlur stdDeviation="12.45" result="effect2_foregroundBlur_2_97"/>
</filter>
<filter id="filter8_f_2_97" x="79.886" y="12.4527" width="110.479" height="110.045" filterUnits="userSpaceOnUse" color-interpolation-filters="sRGB">
<feFlood flood-opacity="0" result="BackgroundImageFix"/>
<feBlend mode="normal" in="SourceGraphic" in2="BackgroundImageFix" result="shape"/>
<feGaussianBlur stdDeviation="9.3" result="effect1_foregroundBlur_2_97"/>
</filter>
<filter id="filter9_d_2_97" x="108" y="41.9999" width="40" height="40" filterUnits="userSpaceOnUse" color-interpolation-filters="sRGB">
<feFlood flood-opacity="0" result="BackgroundImageFix"/>
<feColorMatrix in="SourceAlpha" type="matrix" values="0 0 0 0 0 0 0 0 0 0 0 0 0 0 0 0 0 0 127 0" result="hardAlpha"/>
<feMorphology radius="7" operator="dilate" in="SourceAlpha" result="effect1_dropShadow_2_97"/>
<feOffset/>
<feGaussianBlur stdDeviation="2"/>
<feComposite in2="hardAlpha" operator="out"/>
<feColorMatrix type="matrix" values="0 0 0 0 0 0 0 0 0 0 0 0 0 0 0 0 0 0 0.15 0"/>
<feBlend mode="normal" in2="BackgroundImageFix" result="effect1_dropShadow_2_97"/>
<feBlend mode="normal" in="SourceGraphic" in2="effect1_dropShadow_2_97" result="shape"/>
</filter>
<filter id="filter10_i_2_97" x="173" y="19" width="43.5" height="278" filterUnits="userSpaceOnUse" color-interpolation-filters="sRGB">
<feFlood flood-opacity="0" result="BackgroundImageFix"/>
<feBlend mode="normal" in="SourceGraphic" in2="BackgroundImageFix" result="shape"/>
<feColorMatrix in="SourceAlpha" type="matrix" values="0 0 0 0 0 0 0 0 0 0 0 0 0 0 0 0 0 0 127 0" result="hardAlpha"/>
<feOffset dx="4"/>
<feGaussianBlur stdDeviation="3.5"/>
<feComposite in2="hardAlpha" operator="arithmetic" k2="-1" k3="1"/>
<feColorMatrix type="matrix" values="0 0 0 0 0 0 0 0 0 0 0 0 0 0 0 0 0 0 0.25 0"/>
<feBlend mode="normal" in2="shape" result="effect1_innerShadow_2_97"/>
</filter>
<filter id="filter11_d_2_97" x="88.5" y="142.058" width="120.917" height="206.941" filterUnits="userSpaceOnUse" color-interpolation-filters="sRGB">
<feFlood flood-opacity="0" result="BackgroundImageFix"/>
<feColorMatrix in="SourceAlpha" type="matrix" values="0 0 0 0 0 0 0 0 0 0 0 0 0 0 0 0 0 0 127 0" result="hardAlpha"/>
<feOffset dy="4"/>
<feGaussianBlur stdDeviation="2"/>
<feComposite in2="hardAlpha" operator="out"/>
<feColorMatrix type="matrix" values="0 0 0 0 0 0 0 0 0 0 0 0 0 0 0 0 0 0 0.25 0"/>
<feBlend mode="normal" in2="BackgroundImageFix" result="effect1_dropShadow_2_97"/>
<feBlend mode="normal" in="SourceGraphic" in2="effect1_dropShadow_2_97" result="shape"/>
</filter>
<filter id="filter12_i_2_97" x="128" y="175.5" width="74.2223" height="131" filterUnits="userSpaceOnUse" color-interpolation-filters="sRGB">
<feFlood flood-opacity="0" result="BackgroundImageFix"/>
<feBlend mode="normal" in="SourceGraphic" in2="BackgroundImageFix" result="shape"/>
<feColorMatrix in="SourceAlpha" type="matrix" values="0 0 0 0 0 0 0 0 0 0 0 0 0 0 0 0 0 0 127 0" result="hardAlpha"/>
<feOffset dy="4"/>
<feGaussianBlur stdDeviation="2"/>
<feComposite in2="hardAlpha" operator="arithmetic" k2="-1" k3="1"/>
<feColorMatrix type="matrix" values="0 0 0 0 0 0 0 0 0 0 0 0 0 0 0 0 0 0 0.25 0"/>
<feBlend mode="normal" in2="shape" result="effect1_innerShadow_2_97"/>
</filter>
<filter id="filter13_d_2_97" x="134" y="150" width="53.5" height="144" filterUnits="userSpaceOnUse" color-interpolation-filters="sRGB">
<feFlood flood-opacity="0" result="BackgroundImageFix"/>
<feColorMatrix in="SourceAlpha" type="matrix" values="0 0 0 0 0 0 0 0 0 0 0 0 0 0 0 0 0 0 127 0" result="hardAlpha"/>
<feOffset dx="4"/>
<feGaussianBlur stdDeviation="2"/>
<feComposite in2="hardAlpha" operator="out"/>
<feColorMatrix type="matrix" values="0 0 0 0 0 0 0 0 0 0 0 0 0 0 0 0 0 0 0.25 0"/>
<feBlend mode="normal" in2="BackgroundImageFix" result="effect1_dropShadow_2_97"/>
<feBlend mode="normal" in="SourceGraphic" in2="effect1_dropShadow_2_97" result="shape"/>
</filter>
<filter id="filter14_i_2_97" x="164.838" y="214.5" width="91.1618" height="159.5" filterUnits="userSpaceOnUse" color-interpolation-filters="sRGB">
<feFlood flood-opacity="0" result="BackgroundImageFix"/>
<feBlend mode="normal" in="SourceGraphic" in2="BackgroundImageFix" result="shape"/>
<feColorMatrix in="SourceAlpha" type="matrix" values="0 0 0 0 0 0 0 0 0 0 0 0 0 0 0 0 0 0 127 0" result="hardAlpha"/>
<feOffset dx="4"/>
<feGaussianBlur stdDeviation="2"/>
<feComposite in2="hardAlpha" operator="arithmetic" k2="-1" k3="1"/>
<feColorMatrix type="matrix" values="0 0 0 0 0 0 0 0 0 0 0 0 0 0 0 0 0 0 0.25 0"/>
<feBlend mode="normal" in2="shape" result="effect1_innerShadow_2_97"/>
</filter>
<filter id="filter15_i_2_97" x="212" y="32.5" width="44" height="223.5" filterUnits="userSpaceOnUse" color-interpolation-filters="sRGB">
<feFlood flood-opacity="0" result="BackgroundImageFix"/>
<feBlend mode="normal" in="SourceGraphic" in2="BackgroundImageFix" result="shape"/>
<feColorMatrix in="SourceAlpha" type="matrix" values="0 0 0 0 0 0 0 0 0 0 0 0 0 0 0 0 0 0 127 0" result="hardAlpha"/>
<feOffset dx="4"/>
<feGaussianBlur stdDeviation="3.5"/>
<feComposite in2="hardAlpha" operator="arithmetic" k2="-1" k3="1"/>
<feColorMatrix type="matrix" values="0 0 0 0 0 0 0 0 0 0 0 0 0 0 0 0 0 0 0.25 0"/>
<feBlend mode="normal" in2="shape" result="effect1_innerShadow_2_97"/>
</filter>
<linearGradient id="paint0_linear_2_97" x1="78" y1="294.5" x2="13.5" y2="464" gradientUnits="userSpaceOnUse">
<stop stop-color="#A0D418"/>
<stop offset="1" stop-color="#536E0C"/>
</linearGradient>
<linearGradient id="paint1_linear_2_97" x1="78" y1="294.5" x2="13.5" y2="464" gradientUnits="userSpaceOnUse">
<stop stop-color="#A0D418"/>
<stop offset="1" stop-color="#536E0C"/>
</linearGradient>
<linearGradient id="paint2_linear_2_97" x1="65.8" y1="31.881" x2="256.595" y2="277.119" gradientUnits="userSpaceOnUse">
<stop stop-color="#36D286"/>
<stop offset="1" stop-color="#1C6C45"/>
</linearGradient>
<linearGradient id="paint3_linear_2_97" x1="65.8" y1="31.881" x2="256.595" y2="277.119" gradientUnits="userSpaceOnUse">
<stop stop-color="#36D286"/>
<stop offset="1" stop-color="#1C6C45"/>
</linearGradient>
<linearGradient id="paint4_linear_2_97" x1="46.4472" y1="64.5" x2="361.992" y2="64.5" gradientUnits="userSpaceOnUse">
<stop stop-color="#2BA569"/>
<stop offset="1" stop-color="#103F28"/>
</linearGradient>
<linearGradient id="paint5_linear_2_97" x1="114.5" y1="37" x2="274.5" y2="347" gradientUnits="userSpaceOnUse">
<stop stop-color="#FFD900"/>
<stop offset="0.36" stop-color="#FFD900"/>
<stop offset="1" stop-color="#738A08"/>
</linearGradient>
<linearGradient id="paint6_linear_2_97" x1="89.5" y1="81.5" x2="69.5" y2="161" gradientUnits="userSpaceOnUse">
<stop stop-color="#8FC10E"/>
<stop offset="1" stop-color="#435B07"/>
</linearGradient>
<linearGradient id="paint7_linear_2_97" x1="96.5722" y1="69.0188" x2="169.259" y2="108.149" gradientUnits="userSpaceOnUse">
<stop stop-color="#F3CF01"/>
<stop offset="1" stop-color="#B79C00"/>
</linearGradient>
<linearGradient id="paint8_linear_2_97" x1="192.5" y1="19" x2="295.5" y2="377.5" gradientUnits="userSpaceOnUse">
<stop offset="0.366807" stop-color="#CFB005"/>
<stop offset="1" stop-color="#597E09"/>
</linearGradient>
<linearGradient id="paint9_linear_2_97" x1="298" y1="179" x2="171.5" y2="177.5" gradientUnits="userSpaceOnUse">
<stop stop-color="#EE9A01"/>
<stop offset="1" stop-color="#885801"/>
</linearGradient>
<linearGradient id="paint10_linear_2_97" x1="100" y1="289.5" x2="176.5" y2="176.5" gradientUnits="userSpaceOnUse">
<stop stop-color="#369112"/>
<stop offset="1" stop-color="#102B05"/>
</linearGradient>
<linearGradient id="paint11_linear_2_97" x1="125" y1="271" x2="225.5" y2="176" gradientUnits="userSpaceOnUse">
<stop stop-color="#F69802"/>
<stop offset="0.01" stop-color="#905901"/>
</linearGradient>
<linearGradient id="paint12_linear_2_97" x1="157" y1="119.5" x2="110" y2="195" gradientUnits="userSpaceOnUse">
<stop stop-color="#F5B801"/>
<stop offset="1" stop-color="#FFE41A"/>
</linearGradient>
<linearGradient id="paint13_linear_2_97" x1="202.237" y1="248.054" x2="250.64" y2="350.554" gradientUnits="userSpaceOnUse">
<stop stop-color="#328D11"/>
<stop offset="1" stop-color="#0E2705"/>
</linearGradient>
<linearGradient id="paint14_linear_2_97" x1="194.063" y1="31.7734" x2="271" y2="336.5" gradientUnits="userSpaceOnUse">
<stop stop-color="#D0A106"/>
<stop offset="1" stop-color="#698C09"/>
</linearGradient>
</defs>
</svg>
